<mxfile host="app.diagrams.net" modified="2020-06-19T08:23:59.618Z" agent="5.0 (Windows NT 10.0; Win64; x64) AppleWebKit/537.36 (KHTML, like Gecko) Chrome/83.0.4103.106 Safari/537.36" etag="5ziS76v5UyUwCtZareoX" version="13.2.6" type="github">
  <diagram id="mM8BfhB0ug2EMRv0EJna" name="Page-1">
    <mxGraphModel dx="509" dy="577" grid="1" gridSize="10" guides="1" tooltips="1" connect="1" arrows="1" fold="1" page="1" pageScale="1" pageWidth="1100" pageHeight="850" math="0" shadow="0">
      <root>
        <mxCell id="0" />
        <mxCell id="1" parent="0" />
        <mxCell id="t1NXMLt-jvlbNoCUIiNC-1" value="BoardViewController" style="rounded=0;whiteSpace=wrap;html=1;" parent="1" vertex="1">
          <mxGeometry x="140" y="110" width="120" height="40" as="geometry" />
        </mxCell>
        <mxCell id="t1NXMLt-jvlbNoCUIiNC-2" value="Service" style="rounded=0;whiteSpace=wrap;html=1;" parent="1" vertex="1">
          <mxGeometry x="370" y="110" width="130" height="40" as="geometry" />
        </mxCell>
        <mxCell id="t1NXMLt-jvlbNoCUIiNC-3" value="Dao" style="rounded=0;whiteSpace=wrap;html=1;" parent="1" vertex="1">
          <mxGeometry x="620" y="110" width="130" height="40" as="geometry" />
        </mxCell>
        <mxCell id="t1NXMLt-jvlbNoCUIiNC-4" value="" style="endArrow=none;dashed=1;html=1;" parent="1" edge="1">
          <mxGeometry width="50" height="50" relative="1" as="geometry">
            <mxPoint x="199.5" y="180" as="sourcePoint" />
            <mxPoint x="199.5" y="150" as="targetPoint" />
          </mxGeometry>
        </mxCell>
        <mxCell id="t1NXMLt-jvlbNoCUIiNC-5" value="" style="endArrow=none;dashed=1;html=1;" parent="1" target="t1NXMLt-jvlbNoCUIiNC-11" edge="1">
          <mxGeometry width="50" height="50" relative="1" as="geometry">
            <mxPoint x="200" y="425" as="sourcePoint" />
            <mxPoint x="210" y="235" as="targetPoint" />
          </mxGeometry>
        </mxCell>
        <mxCell id="t1NXMLt-jvlbNoCUIiNC-6" value="" style="endArrow=none;dashed=1;html=1;entryX=0.5;entryY=1;entryDx=0;entryDy=0;" parent="1" source="t1NXMLt-jvlbNoCUIiNC-10" target="t1NXMLt-jvlbNoCUIiNC-2" edge="1">
          <mxGeometry width="50" height="50" relative="1" as="geometry">
            <mxPoint x="510" y="180" as="sourcePoint" />
            <mxPoint x="505" y="340" as="targetPoint" />
          </mxGeometry>
        </mxCell>
        <mxCell id="t1NXMLt-jvlbNoCUIiNC-7" value="" style="endArrow=none;dashed=1;html=1;entryX=0.5;entryY=1;entryDx=0;entryDy=0;" parent="1" source="t1NXMLt-jvlbNoCUIiNC-41" target="t1NXMLt-jvlbNoCUIiNC-3" edge="1">
          <mxGeometry width="50" height="50" relative="1" as="geometry">
            <mxPoint x="820" y="415" as="sourcePoint" />
            <mxPoint x="590" y="160" as="targetPoint" />
          </mxGeometry>
        </mxCell>
        <mxCell id="t1NXMLt-jvlbNoCUIiNC-8" value="" style="endArrow=none;dashed=1;html=1;entryX=0.56;entryY=1.025;entryDx=0;entryDy=0;entryPerimeter=0;" parent="1" source="t1NXMLt-jvlbNoCUIiNC-39" target="t1NXMLt-jvlbNoCUIiNC-10" edge="1">
          <mxGeometry width="50" height="50" relative="1" as="geometry">
            <mxPoint x="510" y="425" as="sourcePoint" />
            <mxPoint x="510" y="220" as="targetPoint" />
          </mxGeometry>
        </mxCell>
        <mxCell id="t1NXMLt-jvlbNoCUIiNC-11" value="" style="html=1;points=[];perimeter=orthogonalPerimeter;" parent="1" vertex="1">
          <mxGeometry x="195" y="180" width="10" height="210" as="geometry" />
        </mxCell>
        <mxCell id="t1NXMLt-jvlbNoCUIiNC-16" value="" style="html=1;verticalAlign=bottom;endArrow=block;exitX=0;exitY=0.885;exitDx=0;exitDy=0;exitPerimeter=0;" parent="1" source="t1NXMLt-jvlbNoCUIiNC-10" target="t1NXMLt-jvlbNoCUIiNC-11" edge="1">
          <mxGeometry x="0.0348" y="-3" width="80" relative="1" as="geometry">
            <mxPoint x="473" y="216" as="sourcePoint" />
            <mxPoint x="250" y="216" as="targetPoint" />
            <mxPoint as="offset" />
          </mxGeometry>
        </mxCell>
        <mxCell id="t1NXMLt-jvlbNoCUIiNC-39" value="" style="html=1;points=[];perimeter=orthogonalPerimeter;" parent="1" vertex="1">
          <mxGeometry x="430" y="235" width="10" height="40" as="geometry" />
        </mxCell>
        <mxCell id="t1NXMLt-jvlbNoCUIiNC-40" value="" style="endArrow=none;dashed=1;html=1;entryX=0.5;entryY=1;entryDx=0;entryDy=0;" parent="1" source="IkbPE3b386Il1y5BWXdk-5" target="t1NXMLt-jvlbNoCUIiNC-39" edge="1">
          <mxGeometry width="50" height="50" relative="1" as="geometry">
            <mxPoint x="435" y="425" as="sourcePoint" />
            <mxPoint x="510" y="220" as="targetPoint" />
          </mxGeometry>
        </mxCell>
        <mxCell id="t1NXMLt-jvlbNoCUIiNC-41" value="" style="html=1;points=[];perimeter=orthogonalPerimeter;" parent="1" vertex="1">
          <mxGeometry x="680" y="235" width="10" height="40" as="geometry" />
        </mxCell>
        <mxCell id="t1NXMLt-jvlbNoCUIiNC-42" value="" style="endArrow=none;dashed=1;html=1;entryX=0.5;entryY=1;entryDx=0;entryDy=0;" parent="1" source="IkbPE3b386Il1y5BWXdk-7" target="t1NXMLt-jvlbNoCUIiNC-41" edge="1">
          <mxGeometry width="50" height="50" relative="1" as="geometry">
            <mxPoint x="685" y="430" as="sourcePoint" />
            <mxPoint x="820" y="150" as="targetPoint" />
          </mxGeometry>
        </mxCell>
        <mxCell id="t1NXMLt-jvlbNoCUIiNC-10" value="" style="html=1;points=[];perimeter=orthogonalPerimeter;" parent="1" vertex="1">
          <mxGeometry x="430" y="180" width="10" height="40" as="geometry" />
        </mxCell>
        <mxCell id="t1NXMLt-jvlbNoCUIiNC-45" value="getBoardno(HttpServletRequest req)" style="html=1;verticalAlign=bottom;endArrow=block;exitX=0.98;exitY=0.137;exitDx=0;exitDy=0;exitPerimeter=0;" parent="1" target="t1NXMLt-jvlbNoCUIiNC-10" edge="1">
          <mxGeometry x="-0.0578" width="80" relative="1" as="geometry">
            <mxPoint x="204.79999999999995" y="190.76999999999998" as="sourcePoint" />
            <mxPoint x="400" y="190.76999999999998" as="targetPoint" />
            <mxPoint as="offset" />
          </mxGeometry>
        </mxCell>
        <mxCell id="t1NXMLt-jvlbNoCUIiNC-52" value="view(Board boardnum)" style="html=1;verticalAlign=bottom;endArrow=block;entryX=0.02;entryY=0.24;entryDx=0;entryDy=0;entryPerimeter=0;" parent="1" source="t1NXMLt-jvlbNoCUIiNC-11" target="t1NXMLt-jvlbNoCUIiNC-39" edge="1">
          <mxGeometry x="-0.0578" width="80" relative="1" as="geometry">
            <mxPoint x="247" y="245" as="sourcePoint" />
            <mxPoint x="400" y="249" as="targetPoint" />
            <mxPoint as="offset" />
          </mxGeometry>
        </mxCell>
        <mxCell id="t1NXMLt-jvlbNoCUIiNC-53" value="" style="html=1;verticalAlign=bottom;endArrow=block;" parent="1" source="t1NXMLt-jvlbNoCUIiNC-39" target="t1NXMLt-jvlbNoCUIiNC-11" edge="1">
          <mxGeometry x="0.0348" y="-3" width="80" relative="1" as="geometry">
            <mxPoint x="380" y="305" as="sourcePoint" />
            <mxPoint x="260" y="305" as="targetPoint" />
            <mxPoint as="offset" />
            <Array as="points">
              <mxPoint x="340" y="270" />
            </Array>
          </mxGeometry>
        </mxCell>
        <mxCell id="IkbPE3b386Il1y5BWXdk-4" value="board" style="edgeLabel;html=1;align=center;verticalAlign=middle;resizable=0;points=[];" parent="t1NXMLt-jvlbNoCUIiNC-53" vertex="1" connectable="0">
          <mxGeometry x="-0.0462" relative="1" as="geometry">
            <mxPoint x="-7" y="-10" as="offset" />
          </mxGeometry>
        </mxCell>
        <mxCell id="t1NXMLt-jvlbNoCUIiNC-55" value="int boardno" style="text;html=1;align=center;verticalAlign=middle;resizable=0;points=[];autosize=1;" parent="1" vertex="1">
          <mxGeometry x="260" y="195" width="80" height="20" as="geometry" />
        </mxCell>
        <mxCell id="t1NXMLt-jvlbNoCUIiNC-56" value="selectBoardByBoardno(Board boardnum)" style="html=1;verticalAlign=bottom;endArrow=block;exitX=1.22;exitY=0.22;exitDx=0;exitDy=0;exitPerimeter=0;" parent="1" source="t1NXMLt-jvlbNoCUIiNC-39" target="t1NXMLt-jvlbNoCUIiNC-41" edge="1">
          <mxGeometry x="-0.0578" width="80" relative="1" as="geometry">
            <mxPoint x="439" y="251" as="sourcePoint" />
            <mxPoint x="440" y="259" as="targetPoint" />
            <mxPoint as="offset" />
          </mxGeometry>
        </mxCell>
        <mxCell id="t1NXMLt-jvlbNoCUIiNC-62" value="" style="html=1;verticalAlign=bottom;endArrow=block;entryX=1.14;entryY=0.78;entryDx=0;entryDy=0;entryPerimeter=0;" parent="1" edge="1">
          <mxGeometry x="0.0348" y="-3" width="80" relative="1" as="geometry">
            <mxPoint x="680" y="269" as="sourcePoint" />
            <mxPoint x="441.4" y="269.20000000000005" as="targetPoint" />
            <mxPoint as="offset" />
            <Array as="points">
              <mxPoint x="610" y="269" />
            </Array>
          </mxGeometry>
        </mxCell>
        <mxCell id="IkbPE3b386Il1y5BWXdk-3" value="viewBoard" style="edgeLabel;html=1;align=center;verticalAlign=middle;resizable=0;points=[];" parent="t1NXMLt-jvlbNoCUIiNC-62" vertex="1" connectable="0">
          <mxGeometry x="-0.0847" y="1" relative="1" as="geometry">
            <mxPoint x="-11" y="-12.2" as="offset" />
          </mxGeometry>
        </mxCell>
        <mxCell id="IkbPE3b386Il1y5BWXdk-5" value="" style="html=1;points=[];perimeter=orthogonalPerimeter;" parent="1" vertex="1">
          <mxGeometry x="430" y="290" width="10" height="40" as="geometry" />
        </mxCell>
        <mxCell id="IkbPE3b386Il1y5BWXdk-6" value="" style="endArrow=none;dashed=1;html=1;entryX=0.5;entryY=1;entryDx=0;entryDy=0;" parent="1" target="IkbPE3b386Il1y5BWXdk-5" edge="1" source="BrwcrxvIPHIlKMEiHu7L-1">
          <mxGeometry width="50" height="50" relative="1" as="geometry">
            <mxPoint x="435" y="425" as="sourcePoint" />
            <mxPoint x="435" y="275" as="targetPoint" />
          </mxGeometry>
        </mxCell>
        <mxCell id="IkbPE3b386Il1y5BWXdk-7" value="" style="html=1;points=[];perimeter=orthogonalPerimeter;" parent="1" vertex="1">
          <mxGeometry x="680" y="290" width="10" height="40" as="geometry" />
        </mxCell>
        <mxCell id="IkbPE3b386Il1y5BWXdk-8" value="" style="endArrow=none;dashed=1;html=1;entryX=0.5;entryY=1;entryDx=0;entryDy=0;" parent="1" target="IkbPE3b386Il1y5BWXdk-7" edge="1" source="BrwcrxvIPHIlKMEiHu7L-3">
          <mxGeometry width="50" height="50" relative="1" as="geometry">
            <mxPoint x="685" y="430" as="sourcePoint" />
            <mxPoint x="685" y="275" as="targetPoint" />
          </mxGeometry>
        </mxCell>
        <mxCell id="IkbPE3b386Il1y5BWXdk-9" value="updateHit(board boardnum)" style="html=1;verticalAlign=bottom;endArrow=block;exitX=1.22;exitY=0.22;exitDx=0;exitDy=0;exitPerimeter=0;" parent="1" edge="1">
          <mxGeometry x="-0.0578" width="80" relative="1" as="geometry">
            <mxPoint x="442.20000000000005" y="299.99999999999994" as="sourcePoint" />
            <mxPoint x="680" y="299.99999999999994" as="targetPoint" />
            <mxPoint as="offset" />
          </mxGeometry>
        </mxCell>
        <mxCell id="BrwcrxvIPHIlKMEiHu7L-1" value="" style="html=1;points=[];perimeter=orthogonalPerimeter;" vertex="1" parent="1">
          <mxGeometry x="430" y="347" width="10" height="40" as="geometry" />
        </mxCell>
        <mxCell id="BrwcrxvIPHIlKMEiHu7L-2" value="" style="endArrow=none;dashed=1;html=1;entryX=0.5;entryY=1;entryDx=0;entryDy=0;" edge="1" parent="1" target="BrwcrxvIPHIlKMEiHu7L-1">
          <mxGeometry width="50" height="50" relative="1" as="geometry">
            <mxPoint x="435" y="425" as="sourcePoint" />
            <mxPoint x="435" y="330" as="targetPoint" />
          </mxGeometry>
        </mxCell>
        <mxCell id="BrwcrxvIPHIlKMEiHu7L-3" value="" style="html=1;points=[];perimeter=orthogonalPerimeter;" vertex="1" parent="1">
          <mxGeometry x="680" y="347" width="10" height="40" as="geometry" />
        </mxCell>
        <mxCell id="BrwcrxvIPHIlKMEiHu7L-4" value="" style="endArrow=none;dashed=1;html=1;entryX=0.5;entryY=1;entryDx=0;entryDy=0;" edge="1" parent="1" target="BrwcrxvIPHIlKMEiHu7L-3">
          <mxGeometry width="50" height="50" relative="1" as="geometry">
            <mxPoint x="685" y="430" as="sourcePoint" />
            <mxPoint x="685" y="330" as="targetPoint" />
          </mxGeometry>
        </mxCell>
        <mxCell id="BrwcrxvIPHIlKMEiHu7L-5" value="commentList(Board board)" style="html=1;verticalAlign=bottom;endArrow=block;" edge="1" parent="1" target="BrwcrxvIPHIlKMEiHu7L-1">
          <mxGeometry x="-0.0578" width="80" relative="1" as="geometry">
            <mxPoint x="205" y="360" as="sourcePoint" />
            <mxPoint x="425" y="360" as="targetPoint" />
            <mxPoint as="offset" />
          </mxGeometry>
        </mxCell>
        <mxCell id="BrwcrxvIPHIlKMEiHu7L-9" value="" style="html=1;verticalAlign=bottom;endArrow=block;entryX=1.14;entryY=0.78;entryDx=0;entryDy=0;entryPerimeter=0;" edge="1" parent="1">
          <mxGeometry x="0.0348" y="-3" width="80" relative="1" as="geometry">
            <mxPoint x="678.6" y="380" as="sourcePoint" />
            <mxPoint x="440" y="380.20000000000005" as="targetPoint" />
            <mxPoint as="offset" />
            <Array as="points">
              <mxPoint x="608.6" y="380" />
            </Array>
          </mxGeometry>
        </mxCell>
        <mxCell id="BrwcrxvIPHIlKMEiHu7L-10" value="List&amp;lt;Comment&amp;gt;" style="edgeLabel;html=1;align=center;verticalAlign=middle;resizable=0;points=[];" vertex="1" connectable="0" parent="BrwcrxvIPHIlKMEiHu7L-9">
          <mxGeometry x="-0.0847" y="1" relative="1" as="geometry">
            <mxPoint x="-11" y="-12.2" as="offset" />
          </mxGeometry>
        </mxCell>
        <mxCell id="BrwcrxvIPHIlKMEiHu7L-11" value="" style="html=1;verticalAlign=bottom;endArrow=block;entryX=1.14;entryY=0.78;entryDx=0;entryDy=0;entryPerimeter=0;exitX=-0.3;exitY=0.825;exitDx=0;exitDy=0;exitPerimeter=0;" edge="1" parent="1" source="BrwcrxvIPHIlKMEiHu7L-1">
          <mxGeometry x="0.0348" y="-3" width="80" relative="1" as="geometry">
            <mxPoint x="400" y="380" as="sourcePoint" />
            <mxPoint x="205" y="380.20000000000005" as="targetPoint" />
            <mxPoint as="offset" />
            <Array as="points">
              <mxPoint x="373.6" y="380" />
            </Array>
          </mxGeometry>
        </mxCell>
        <mxCell id="BrwcrxvIPHIlKMEiHu7L-12" value="List&amp;lt;Comment&amp;gt;" style="edgeLabel;html=1;align=center;verticalAlign=middle;resizable=0;points=[];" vertex="1" connectable="0" parent="BrwcrxvIPHIlKMEiHu7L-11">
          <mxGeometry x="-0.0847" y="1" relative="1" as="geometry">
            <mxPoint x="-11" y="-12.2" as="offset" />
          </mxGeometry>
        </mxCell>
        <mxCell id="BrwcrxvIPHIlKMEiHu7L-13" value="selectCommentByBoardNo(Board board)" style="html=1;verticalAlign=bottom;endArrow=block;entryX=-0.34;entryY=0.325;entryDx=0;entryDy=0;entryPerimeter=0;" edge="1" parent="1" target="BrwcrxvIPHIlKMEiHu7L-3">
          <mxGeometry x="0.0144" width="80" relative="1" as="geometry">
            <mxPoint x="440" y="360" as="sourcePoint" />
            <mxPoint x="665" y="360" as="targetPoint" />
            <mxPoint as="offset" />
          </mxGeometry>
        </mxCell>
      </root>
    </mxGraphModel>
  </diagram>
</mxfile>
